<?xml version="1.0" standalone="no"?>
<!DOCTYPE svg PUBLIC "-//W3C//DTD SVG 20010904//EN"
 "http://www.w3.org/TR/2001/REC-SVG-20010904/DTD/svg10.dtd">
<svg version="1.0" xmlns="http://www.w3.org/2000/svg"
 width="186.000000pt" height="186.000000pt" viewBox="0 0 186.000000 186.000000"
 preserveAspectRatio="xMidYMid meet">
<metadata>
Created by potrace 1.14, written by Peter Selinger 2001-2017
</metadata>
<g transform="translate(0.000000,186.000000) scale(0.100000,-0.100000)"
fill="#000000" stroke="none">
<path d="M740 1643 c-63 -238 -221 -433 -438 -538 l-72 -36 88 -44 c205 -103
355 -287 423 -518 13 -42 25 -77 29 -77 3 0 20 47 38 104 70 221 213 390 414
491 l88 44 -73 35 c-214 104 -373 301 -438 544 -12 45 -25 82 -29 82 -4 0 -17
-39 -30 -87z m40 -86 c0 -23 71 -161 115 -222 54 -76 151 -167 233 -220 34
-22 62 -43 62 -46 0 -3 -28 -23 -61 -44 -132 -81 -276 -250 -333 -390 l-23
-57 -41 83 c-73 151 -200 293 -331 370 l-61 36 65 43 c84 54 172 135 231 213
46 61 124 208 124 234 0 7 5 13 10 13 6 0 10 -6 10 -13z"/>
<path d="M988 1423 c26 -36 102 -110 102 -99 0 14 -42 80 -66 104 -13 12 -30
22 -39 22 -14 0 -14 -4 3 -27z"/>
<path d="M1320 760 c-24 -99 -128 -222 -220 -260 l-32 -13 43 -23 c96 -49 174
-140 206 -241 9 -29 20 -53 23 -53 4 0 12 19 19 43 31 104 91 179 192 239 l56
34 -54 28 c-90 48 -176 162 -198 264 -9 46 -21 40 -35 -18z m45 -126 c10 -19
46 -61 80 -92 l61 -57 -59 -54 c-32 -30 -68 -71 -80 -93 -12 -21 -24 -38 -27
-38 -3 0 -14 16 -25 36 -10 19 -46 61 -80 92 l-61 57 52 48 c29 26 65 68 81
92 15 25 30 45 33 45 3 0 14 -16 25 -36z"/>
</g>
</svg>
